<svg xmlns="http://www.w3.org/2000/svg" viewBox="0 0 64 64"><defs><radialGradient id="a" cx="50%" cy="50%" r="50%"><stop offset="0%" stop-color="gold" stop-opacity=".4"/><stop offset="100%" stop-color="gold" stop-opacity="0"/></radialGradient><linearGradient id="c" x1="0" x2="0" y1="0" y2="1" gradientUnits="userSpaceOnUse"><stop offset="0%" stop-color="#ffe566"/><stop offset="50%" stop-color="gold"/><stop offset="100%" stop-color="#f90"/></linearGradient><filter id="b"><feGaussianBlur result="b" stdDeviation="1.5"/><feMerge><feMergeNode in="b"/><feMergeNode in="SourceGraphic"/></feMerge></filter></defs><rect width="64" height="64" fill="#08080f" rx="14"/><rect width="64" height="64" fill="url(#a)" rx="14"/><g filter="url(#b)" transform="matrix(1.3 0 0 1.3 6 4)"><path fill="url(#c)" stroke="#ffe566" stroke-linejoin="round" stroke-width=".5" d="M4 28V18l6 4 4-14 6 6V6v8l6-6 4 14 6-4v10h-6l-2 6-2-6h-6v8-8h-6l-2 6-2-6Z"/><circle cx="20" cy="18" r="3" fill="#ff1744" stroke="#ffe566" stroke-width=".5"/><circle cx="19" cy="17" r="1" fill="#fff" opacity=".5"/><circle cx="11" cy="20" r="1.8" fill="#7000ff" stroke="#ffe566" stroke-width=".4" opacity=".9"/><circle cx="29" cy="20" r="1.8" fill="#00c853" stroke="#ffe566" stroke-width=".4" opacity=".9"/></g></svg>